<svg xmlns="http://www.w3.org/2000/svg" viewBox="0 0 720 480" role="img" aria-labelledby="title desc">
  <title id="title">Xicara de cha</title>
  <desc id="desc">Xicara transparente com cha dourado, inspirada em desenho de linha.</desc>
  <defs>
    <radialGradient id="glow" cx="45%" cy="55%" r="62%">
      <stop offset="0" stop-color="#fffaf0"/>
      <stop offset=".42" stop-color="#f8dfaf"/>
      <stop offset="1" stop-color="#b8b4ab"/>
    </radialGradient>
    <linearGradient id="tea" x1="0" x2="1">
      <stop offset="0" stop-color="#ffd469"/>
      <stop offset=".52" stop-color="#ffc65a"/>
      <stop offset="1" stop-color="#f0a944"/>
    </linearGradient>
    <linearGradient id="glass" x1="0" x2="1">
      <stop offset="0" stop-color="#ffffff" stop-opacity=".7"/>
      <stop offset=".48" stop-color="#fffdf8" stop-opacity=".42"/>
      <stop offset="1" stop-color="#ffffff" stop-opacity=".66"/>
    </linearGradient>
    <filter id="soft" x="-20%" y="-20%" width="140%" height="140%">
      <feGaussianBlur stdDeviation="7"/>
    </filter>
  </defs>
  <rect width="720" height="480" rx="36" fill="url(#glow)"/>
  <ellipse cx="330" cy="274" rx="196" ry="92" fill="#ffd061" opacity=".42" filter="url(#soft)"/>
  <path d="M152 151c23 214 86 260 178 260s155-46 178-260" fill="url(#glass)" stroke="#3c3328" stroke-width="7" stroke-linecap="round" stroke-linejoin="round"/>
  <path d="M151 151c0-47 358-47 358 0 0 46-358 46-358 0Z" fill="none" stroke="#3c3328" stroke-width="7"/>
  <path d="M174 162c32 34 283 34 315 0" fill="none" stroke="#3c3328" stroke-width="5" opacity=".82"/>
  <path d="M202 258c19-45 238-45 257 0 14 33-36 91-127 91s-144-58-130-91Z" fill="url(#tea)" opacity=".9"/>
  <path d="M208 260c50 32 201 32 245 0" fill="none" stroke="#3c3328" stroke-width="6" stroke-linecap="round"/>
  <path d="M508 165c70-57 157-17 155 62-2 70-83 121-153 81" fill="none" stroke="#3c3328" stroke-width="7" stroke-linecap="round"/>
  <path d="M526 191c44-37 94-21 95 25 1 43-53 78-96 56" fill="none" stroke="#3c3328" stroke-width="6" stroke-linecap="round"/>
  <path d="M550 168c36-22 74-16 96 19" fill="none" stroke="#ffd6c5" stroke-width="18" stroke-linecap="round" opacity=".78"/>
  <path d="M258 395c16 30 128 30 144 0" fill="#fffaf3" stroke="#3c3328" stroke-width="7" stroke-linejoin="round"/>
  <ellipse cx="330" cy="414" rx="118" ry="23" fill="#fffaf3" stroke="#3c3328" stroke-width="6"/>
  <path d="M244 395c39 17 136 17 172 0" fill="none" stroke="#ffd6c5" stroke-width="10" stroke-linecap="round" opacity=".7"/>
</svg>
